<?xml version="1.0" encoding="utf-8"?>
<!-- Generator: Adobe Illustrator 15.0.2, SVG Export Plug-In . SVG Version: 6.00 Build 0)  -->
<!DOCTYPE svg PUBLIC "-//W3C//DTD SVG 1.1//EN" "http://www.w3.org/Graphics/SVG/1.1/DTD/svg11.dtd">
<svg version="1.1" id="Layer_1" xmlns="http://www.w3.org/2000/svg" xmlns:xlink="http://www.w3.org/1999/xlink" x="0px" y="0px"
	 width="50px" height="34px" viewBox="0 0 50 34" enable-background="new 0 0 50 34" xml:space="preserve">
<g>
	<defs>
		<path id="SVGID_1_" d="M3,0C1.35,0,0,1.35,0,3s1.35,3,3,3h44c1.65,0,3-1.35,3-3s-1.35-3-3-3H3z"/>
	</defs>
	<use xlink:href="#SVGID_1_"  overflow="visible" fill="#735A92"/>
	<clipPath id="SVGID_2_">
		<use xlink:href="#SVGID_1_"  overflow="visible"/>
	</clipPath>
	<rect clip-path="url(#SVGID_2_)" fill="#735A92" width="50" height="6"/>
</g>
<g>
	<defs>
		<path id="SVGID_3_" d="M3,14c-1.65,0-3,1.35-3,3c0,1.65,1.35,3,3,3h44c1.65,0,3-1.35,3-3c0-1.65-1.35-3-3-3H3z"/>
	</defs>
	<use xlink:href="#SVGID_3_"  overflow="visible" fill="#735A92"/>
	<clipPath id="SVGID_4_">
		<use xlink:href="#SVGID_3_"  overflow="visible"/>
	</clipPath>
	<rect y="14" clip-path="url(#SVGID_4_)" fill="#735A92" width="50" height="6"/>
</g>
<g>
	<defs>
		<path id="SVGID_5_" d="M3,28c-1.65,0-3,1.35-3,3s1.35,3,3,3h44c1.65,0,3-1.35,3-3s-1.35-3-3-3H3z"/>
	</defs>
	<use xlink:href="#SVGID_5_"  overflow="visible" fill="#735A92"/>
	<clipPath id="SVGID_6_">
		<use xlink:href="#SVGID_5_"  overflow="visible"/>
	</clipPath>
	<rect y="28" clip-path="url(#SVGID_6_)" fill="#735A92" width="50" height="6"/>
</g>
</svg>
