<?xml version="1.0" encoding="utf-8"?>
<!-- Generator: Adobe Illustrator 18.1.1, SVG Export Plug-In . SVG Version: 6.00 Build 0)  -->
<svg version="1.1" id="Layer_1" xmlns="http://www.w3.org/2000/svg" xmlns:xlink="http://www.w3.org/1999/xlink" x="0px" y="0px"
	 viewBox="0 0 123.4 25.4" enable-background="new 0 0 123.4 25.4" xml:space="preserve">
<g>
	<path fill="#707071" d="M33.3,14.5c0,2.7-1.8,4.6-4.7,4.6c-0.6,0-1.4-0.2-2-0.4v5.4h-1.8V10.2H28C30.8,10.2,33.3,11.4,33.3,14.5z
		 M26.7,11.6v5.6c0.5,0.2,1.3,0.5,1.9,0.5c1.9,0,3-1.6,3-3.2c0-2-1.6-2.8-3.5-2.8H26.7z"/>
	<path fill="#707071" d="M39.7,14.8c0,0-0.4-0.3-1-0.3c-0.8,0-1.4,0.7-1.9,1.2v8.4H35V13.3h1.8v0.9c0.5-0.5,1-1.2,2.4-1.2
		c0.6,0,1.1,0.3,1.1,0.3L39.7,14.8z"/>
	<path fill="#707071" d="M49.2,18.7c0,2.5-1.4,5.7-4.5,5.7c-3.1,0-4.5-3.2-4.5-5.7s1.4-5.7,4.5-5.7C47.8,12.9,49.2,16.2,49.2,18.7z
		 M42,18.7c0,1.6,0.8,4.4,2.7,4.4s2.7-2.7,2.7-4.4c0-1.7-0.8-4.4-2.7-4.4S42,17,42,18.7z"/>
	<path fill="#707071" d="M59.2,24.4c-0.5,0-0.9-0.1-1.3-0.4c-0.3-0.4-0.5-1-0.5-1.5c-0.3,1.3-1.8,1.9-3.1,1.9c-2.8,0-4-2.8-4-5.1
		c0-3.2,1.1-6.3,4.8-6.3c0.8,0,1.5,0.1,2.2,0.3V8.8h1.7V22c0,0.4,0,1.2,0.6,1.3L59.2,24.4z M57.3,14.7c-0.6-0.2-1.4-0.4-2.1-0.4
		c-2.8,0-3.2,2.7-3.2,4.8c0,1.4,0.6,4,2.5,4c1.9,0,2.8-2.4,2.8-3.9V14.7z"/>
	<path fill="#707071" d="M69.7,24.4c-0.8,0-1.5-0.5-1.6-1.3c-0.9,0.8-2.4,1.3-3.6,1.3c-2.1,0-2.9-1-2.9-2.9v-8.2h1.7v8.2
		c0,0.9,0.1,1.6,1.3,1.6c1,0,2.7-0.6,3.4-1.3v-8.5h1.7v9.1c0,0.4,0,0.8,0.5,0.9L69.7,24.4z"/>
	<path fill="#707071" d="M76.1,24.4c-3.2,0-4.5-3-4.5-5.6c0-2.6,1.3-5.8,4.5-5.8c1,0,2.2,0.4,2.9,1.1l-0.8,1
		c-0.6-0.4-1.4-0.8-2.1-0.8c-2.1,0-2.8,2.7-2.8,4.3c0,1.7,0.7,4.5,2.9,4.5c0.8,0,1.9-0.6,2.5-1l0.6,1C78.5,23.8,77.2,24.4,76.1,24.4
		z"/>
	<path fill="#707071" d="M82.9,24.4c-1.1,0-2-0.6-2-2.5v-7.4l-1.5-0.2v-1.1H81v-1.9h1.6v1.9h2.3v1.3h-2.2v7.3c0,0.9,0.4,1.2,0.9,1.2
		c0.6,0,1.3-0.3,1.3-0.3l0.4,1C85.2,23.8,84.2,24.4,82.9,24.4z"/>
	<path fill="#707071" d="M92.3,10.5c1.4,0.5,2.1,1.7,2.1,3.2c0,1.2-0.9,2.6-2.2,2.9c1.9,0.1,3,1.6,3,3.4c0,2.9-2.3,4.4-5.2,4.4
		c-1.2,0-2.5-0.3-3.6-0.6V10.2h3.6C90.8,10.2,91.6,10.3,92.3,10.5z M90,11.6h-1.7v4.5H90c1.5,0,2.6-0.9,2.6-2.4
		C92.6,12.1,91.5,11.6,90,11.6z M89.9,17.5h-1.6v5.1c0.5,0.2,1.1,0.3,1.7,0.3c1.9,0,3.4-0.9,3.4-2.9C93.4,17.8,91.8,17.5,89.9,17.5z
		"/>
	<path fill="#707071" d="M105,24.4c-0.8,0-1.5-0.5-1.6-1.3c-0.9,0.8-2.4,1.3-3.6,1.3c-2.1,0-2.9-1-2.9-2.9v-8.2h1.7v8.2
		c0,0.9,0.1,1.6,1.3,1.6c1,0,2.7-0.6,3.4-1.3v-8.5h1.7v9.1c0,0.4,0,0.8,0.5,0.9L105,24.4z"/>
	<path fill="#707071" d="M106.6,24.1v-1.4c1.7-2.8,3.6-5.5,5.8-7.9H107v-1.4h7.4v1.5c-2.1,2.5-4.1,5.1-5.8,7.9h6.2v1.4H106.6z"/>
	<path fill="#707071" d="M115.2,24.1v-1.4c1.7-2.8,3.6-5.5,5.8-7.9h-5.3v-1.4h7.4v1.5c-2.1,2.5-4.1,5.1-5.8,7.9h6.2v1.4H115.2z"/>
</g>
<g id="Comments">
	<g>
		<path fill="#AFCB36" d="M10.4,7.2c5.8,0,10.4,3.8,10.4,8.4c0,1.9-0.7,3.6-2,5l1.9,4.8l-8.2-1.7c-0.9,0-1.8,0.2-2.8,0.3
			c-0.1,0-0.2,0-0.3,0C3.9,24,0,20.2,0,15.6C0,11,4.7,7.2,10.4,7.2 M10.4,9.5c-4.5,0-8.2,2.8-8.2,6.1c0,3.5,3.1,6.1,7.2,6.1
			c0.1,0,0.2,0,0.3,0c0.4,0,0.8-0.1,1.3-0.1c0.5-0.1,1-0.1,1.5-0.1l0.3,0l0.3,0.1l4.1,0.8l-0.4-0.9l-0.5-1.3l1-1.1
			c0.6-0.7,1.4-1.9,1.4-3.4C18.6,12.2,14.9,9.5,10.4,9.5L10.4,9.5z"/>
	</g>
</g>
</svg>
